<?xml version="1.0" encoding="UTF-8" standalone="no"?>
<!-- Created with Inkscape (http://www.inkscape.org/) -->

<svg
   width="210mm"
   height="210mm"
   viewBox="0 0 210 210"
   version="1.1"
   id="svg1"
   xml:space="preserve"
   inkscape:version="1.4 (e7c3feb100, 2024-10-09)"
   sodipodi:docname="pageIcon.svg"
   xmlns:inkscape="http://www.inkscape.org/namespaces/inkscape"
   xmlns:sodipodi="http://sodipodi.sourceforge.net/DTD/sodipodi-0.dtd"
   xmlns="http://www.w3.org/2000/svg"
   xmlns:svg="http://www.w3.org/2000/svg"><sodipodi:namedview
     id="namedview1"
     pagecolor="#ffffff"
     bordercolor="#000000"
     borderopacity="0.25"
     inkscape:showpageshadow="2"
     inkscape:pageopacity="0.0"
     inkscape:pagecheckerboard="0"
     inkscape:deskcolor="#d1d1d1"
     inkscape:document-units="mm"
     inkscape:zoom="0.69931958"
     inkscape:cx="396.09931"
     inkscape:cy="561.25985"
     inkscape:window-width="1920"
     inkscape:window-height="1011"
     inkscape:window-x="0"
     inkscape:window-y="0"
     inkscape:window-maximized="1"
     inkscape:current-layer="layer1" /><defs
     id="defs1"><linearGradient
       id="swatch7"
       inkscape:swatch="solid"><stop
         style="stop-color:#d0c013;stop-opacity:1;"
         offset="0"
         id="stop7" /></linearGradient><clipPath
       clipPathUnits="userSpaceOnUse"
       id="clipPath2"><ellipse
         style="fill:#ececec;stroke-width:0.410059"
         id="ellipse2"
         cx="104.80127"
         cy="104.99043"
         rx="104.42293"
         ry="104.6121" /></clipPath><clipPath
       clipPathUnits="userSpaceOnUse"
       id="clipPath3"><ellipse
         style="fill:#ececec;stroke-width:0.312727"
         id="circle3"
         cy="103.98343"
         cx="107.33874"
         rx="108.20524"
         ry="108.34706" /></clipPath><clipPath
       clipPathUnits="userSpaceOnUse"
       id="clipPath4"><ellipse
         style="fill:#ececec;stroke-width:0.244068"
         id="ellipse4"
         cx="105.86962"
         cy="108.48461"
         rx="93.070007"
         ry="96.464096" /></clipPath></defs><g
     inkscape:label="Layer 1"
     inkscape:groupmode="layer"
     id="layer1"><path
       style="fill:#000000;stroke-width:2.1;stroke-dasharray:none;stroke:none;stroke-opacity:1"
       d="m 90.100631,184.66096 c -0.03011,-0.0321 -8.931546,-0.0694 -19.780968,-0.0829 -10.849422,-0.0135 -20.937035,-0.0864 -22.416917,-0.16204 -1.479882,-0.0756 -5.122517,-0.16731 -8.094743,-0.20375 -2.972227,-0.0364 -5.437803,-0.10223 -5.479057,-0.14623 -0.04125,-0.044 0.455344,-2.01045 1.103554,-4.36989 0.64821,-2.35944 1.22433,-4.49443 1.280268,-4.74441 0.09174,-0.40997 -0.05649,-0.60003 -1.512575,-1.93938 l -1.61428,-1.48486 -0.485576,1.15422 -0.485576,1.15423 0.449455,0.39513 c 0.2472,0.21732 0.792,0.64797 1.210667,0.957 0.418667,0.30902 0.762399,0.67786 0.763848,0.81963 0.0031,0.30493 -0.508081,2.44058 -1.367694,5.71384 l -0.620528,2.36286 h -1.581131 -1.58113 l 0,-0.75226 c 0,-0.47311 0.09363,-0.83513 0.252319,-0.97559 0.138776,-0.12283 0.364783,-0.46095 0.502238,-0.75138 0.137455,-0.29043 0.372616,-0.68271 0.52258,-0.87174 0.149963,-0.18903 0.361407,-0.5656 0.469874,-0.83683 0.161148,-0.40296 0.158171,-0.47716 -0.01628,-0.40577 -0.117422,0.0481 -0.351206,-0.02 -0.519519,-0.15127 -0.359929,-0.28069 -0.72782,-0.31229 -0.72782,-0.0625 0,0.0969 0.217525,0.22254 0.483389,0.27924 0.265865,0.0567 0.48339,0.13792 0.48339,0.18047 0,0.2264 -1.376599,2.50397 -1.558411,2.57838 -0.137588,0.0563 -0.214018,0.38787 -0.214018,0.92842 l 0,0.84084 h -0.725084 c -0.879726,0 -0.884202,-0.031 -0.309878,-2.14374 0.393399,-1.44721 0.652817,-2.23853 2.193749,-6.69175 0.356989,-1.03169 1.195331,-3.15827 1.862983,-4.72573 2.446324,-5.74332 2.637902,-6.26117 2.374489,-6.41838 -0.470929,-0.28107 -0.171155,-1.34181 0.558153,-1.97502 0.136999,-0.11894 0.865411,-0.56264 1.618694,-0.986 0.892093,-0.50136 2.082347,-1.42219 3.413903,-2.64112 2.203664,-2.01727 3.371959,-2.77904 8.34858,-5.44357 2.537287,-1.35849 6.95362,-3.96463 8.862144,-5.22968 0.398797,-0.26434 1.812712,-1.19737 3.142034,-2.07341 4.020738,-2.6497 4.713036,-3.18668 4.82798,-3.74482 0.133744,-0.64942 0.860062,-1.4252 2.314918,-2.47255 2.550544,-1.83614 5.103666,-2.82059 6.91328,-2.66567 1.150997,0.0985 1.16349,0.078 0.778165,-1.27603 -0.125297,-0.44031 -0.202648,-0.8274 -0.17189,-0.86021 0.03076,-0.0328 0.355641,-1.6058 0.721963,-3.49555 0.994943,-5.13262 1.776208,-7.7577 2.582932,-8.67873 0.353308,-0.40337 0.597715,-0.49786 1.538653,-0.59487 0.615244,-0.0634 1.209262,-0.14609 1.320039,-0.18367 0.231381,-0.0785 0.264312,-3.87531 0.06062,-6.98933 -0.119482,-1.82663 -0.126168,-1.84974 -0.870122,-3.00728 -1.332677,-2.07355 -2.081177,-4.34256 -2.306217,-6.99111 -0.131433,-1.54686 -0.226255,-1.75553 -0.680033,-1.49653 -0.421899,0.24081 -1.410098,0.22261 -2.079103,-0.0383 -1.365756,-0.53262 -2.95279,-2.61223 -3.604236,-4.722893 -0.414207,-1.342016 -1.280537,-3.245628 -1.952095,-4.289396 -0.825888,-1.283635 -1.393342,-2.805366 -2.001219,-5.366635 l -0.591377,-2.491748 0.143728,-2.382099 0.143728,-2.382098 -0.805649,-0.431533 C 64.298336,79.646182 60.147696,75.839559 58.269,73.013519 c -0.386757,-0.581782 -0.884599,-1.483102 -1.106314,-2.002932 -0.373779,-0.876354 -0.395701,-1.070446 -0.301198,-2.666695 0.160475,-2.710564 0.196924,-2.789698 2.32634,-5.050666 1.033481,-1.097327 2.459124,-2.429173 3.168096,-2.959659 1.508121,-1.128446 4.388178,-2.770308 6.445196,-3.674274 0.797593,-0.350506 1.462065,-0.648046 1.476605,-0.6612 0.01454,-0.01315 0.21614,-1.686515 0.447999,-3.718579 0.518763,-4.546549 1.010573,-6.609328 2.524181,-10.58707 0.643467,-1.691021 1.8272,-4.957295 2.63052,-7.258386 l 1.46058,-4.183802 2.416948,-0.924232 c 1.329322,-0.508328 3.504576,-1.502628 4.833898,-2.209555 2.400572,-1.276615 4.054165,-2.523778 7.089715,-5.347162 0.531729,-0.494564 1.353288,-1.141451 1.825688,-1.437526 0.698192,-0.43759 7.728426,-3.446471 8.769086,-3.753094 0.15535,-0.04577 1.4605,0.319861 2.90034,0.812521 1.43983,0.49266 3.30671,1.128453 4.14861,1.412873 1.99266,0.673181 4.06331,1.817852 5.16348,2.854418 2.04994,1.931435 3.8423,3.371584 4.74601,3.813386 1.12025,0.547663 4.51064,1.606234 6.06128,1.892495 l 1.06626,0.19684 1.17891,3.466184 c 1.32056,3.882646 2.19936,5.981569 3.71768,8.879292 2.1437,4.091252 3.64977,8.100221 4.27725,11.385469 0.19216,1.006078 0.36866,1.529739 0.53286,1.5809 0.13504,0.04208 1.22439,0.318382 2.42078,0.614014 1.19639,0.295632 2.68282,0.75462 3.30317,1.019973 2.37729,1.016885 5.18098,2.585298 6.14741,3.438934 0.90014,0.795079 2.663,3.016267 3.07218,3.870909 0.25105,0.524379 0.71905,2.954252 0.7234,3.755975 0.004,0.765112 -0.85553,2.926393 -1.91894,4.824282 -1.66579,2.972989 -5.00719,6.702472 -7.97037,8.896079 -1.75891,1.302104 -1.87083,1.418852 -1.7324,1.807146 0.0814,0.228311 0.14574,1.318706 0.14301,2.423099 -0.009,3.759973 -0.45921,6.161754 -1.62277,8.663184 -0.92385,1.986119 -1.60696,4.003655 -1.9941,5.889468 -0.15523,0.756117 -0.38004,1.578145 -0.4996,1.82673 -0.68896,1.432572 -2.02338,2.334392 -3.70146,2.501512 -0.58967,0.0587 -1.04063,0.18567 -1.04245,0.29345 -0.002,0.10448 -0.10605,1.19525 -0.23175,2.42394 -0.34905,3.41175 -0.7973,4.58834 -2.96858,7.79208 -1.03211,1.52289 -1.23861,2.10509 -1.71178,4.82609 -0.2452,1.4101 -0.25484,1.77208 -0.0743,2.79248 l 0.20741,1.17237 h 1.49338 c 1.79697,0 1.79488,-0.002 2.73504,2.14805 0.75231,1.72018 1.48533,4.3597 2.00439,7.21748 0.18883,1.03966 0.45773,2.33848 0.59757,2.88625 0.24888,0.97495 0.21222,1.41856 -0.21548,2.60724 -0.0581,0.16137 0.32417,0.23996 1.50194,0.30881 1.73629,0.10151 2.66827,0.4232 4.83174,1.66776 2.54332,1.46308 3.57841,2.37668 3.89981,3.44208 0.15822,0.52448 0.53705,0.84737 2.96006,2.52293 4.48044,3.09832 9.48181,6.2426 12.50734,7.86316 4.94444,2.64838 8.42624,4.87158 9.92912,6.33994 0.81641,0.79766 2.20861,1.80649 3.35984,2.43465 1.53946,0.84 2.36027,1.6377 2.36027,2.29381 0,0.26009 -0.0884,0.56715 -0.19639,0.68234 -0.15443,0.16471 -0.12076,0.36479 0.15761,0.93656 0.84917,1.74419 3.96661,9.04701 4.68766,10.98118 0.43442,1.16531 1.1649,3.35602 1.6233,4.86826 0.45839,1.51223 0.86384,2.84617 0.901,2.96432 0.045,0.14301 -0.11021,0.2148 -0.46434,0.2148 -0.50383,0 -0.54065,-0.0431 -0.69784,-0.81626 l -0.16595,-0.81626 -0.0222,0.79622 c -0.0259,0.92778 -0.15393,1.00204 -1.73469,1.0058 l -0.98742,0.002 -0.34109,-0.98811 c -0.43781,-1.26827 -1.47226,-4.88772 -1.46114,-5.11238 0.005,-0.0945 0.47272,-0.55849 1.04008,-1.03107 0.56736,-0.47257 1.03462,-0.94519 1.03834,-1.05026 0.006,-0.16797 -0.91157,-2.46274 -1.04683,-2.61816 -0.0286,-0.0328 -0.77456,0.61623 -1.65776,1.44235 l -1.60581,1.50204 0.30388,1.16948 c 0.16713,0.64321 0.49311,1.69541 0.7244,2.33823 0.53844,1.49644 1.35534,4.02889 1.35534,4.20163 0,0.0731 -2.66468,0.14441 -5.92152,0.15841 -3.25684,0.014 -6.21156,0.0492 -6.56605,0.0782 -1.46297,0.11973 -17.46966,0.24137 -35.60971,0.27061 -22.92414,0.0369 -18.38571,0.0263 -28.960823,0.0677 -4.850775,0.019 -8.844226,0.008 -8.874336,-0.0239 z m 89.713739,-3.85243 c -0.14888,-0.30707 -0.40801,-0.71548 -0.57583,-0.9076 -0.33623,-0.3849 -0.392,-0.62818 -0.144,-0.62818 0.0886,0 0.16113,-0.0773 0.16113,-0.17184 0,-0.0945 -0.10876,-0.17185 -0.2417,-0.17185 -0.41664,0 -0.26739,0.67766 0.3602,1.63546 0.65904,1.0058 0.86491,1.11991 0.4402,0.24401 z M 31.913847,178.16159 c -0.476758,-0.41565 -1.059186,-0.67006 -1.058384,-0.46231 5.07e-4,0.13142 1.131545,0.8429 1.369169,0.86128 0.08862,0.007 -0.05123,-0.17269 -0.310785,-0.39897 z m 75.950303,-12.10445 c 0.66706,-0.99909 0.25405,-2.03114 -0.87689,-2.1912 -0.95131,-0.13464 -1.44957,0.50353 -1.38651,1.77584 0.0297,0.59866 0.4536,0.91446 1.22756,0.91446 0.59162,0 0.75525,-0.0788 1.03584,-0.4991 z M 41.6586,163.21372 c 0.43462,-0.61014 2.163108,-2.18199 3.375859,-3.06995 0.398797,-0.29199 0.833847,-0.64557 0.966779,-0.78574 0.132933,-0.14016 2.090661,-1.21256 4.350508,-2.38311 4.950401,-2.5642 7.158856,-3.74145 9.845861,-5.24849 2.688765,-1.50803 3.042308,-1.72784 3.043512,-1.89223 5.61e-4,-0.0765 0.06768,-0.0951 0.149159,-0.0414 0.08148,0.0537 0.262748,-0.0246 0.402825,-0.17398 0.140076,-0.14939 0.254685,-0.22839 0.254685,-0.17555 0,0.0528 0.380669,-0.16364 0.845932,-0.48106 0.465262,-0.31741 1.317237,-0.8469 1.893276,-1.17663 2.154904,-1.2335 2.982429,-1.74691 3.034613,-1.88275 0.02954,-0.0769 0.158706,-0.13982 0.287035,-0.13982 0.128328,0 0.2749,-0.11555 0.325716,-0.25678 0.05082,-0.14123 0.139175,-0.22847 0.196355,-0.19387 0.05718,0.0346 0.935578,-0.41049 1.951995,-0.98909 l 1.848031,-1.052 0.59924,-1.46068 c 0.329582,-0.80338 0.712484,-1.73799 0.850895,-2.07692 0.335849,-0.82241 0.317422,-1.0511 -0.07939,-0.98528 -0.241952,0.0401 -0.481766,0.4249 -0.891071,1.42967 -1.04223,2.55849 -1.020099,2.52706 -2.242174,3.18389 -1.132151,0.6085 -2.112689,1.188 -3.817385,2.25609 -0.504376,0.31602 -1.50655,0.92257 -2.227055,1.34789 -0.720505,0.42531 -1.736988,1.05961 -2.258852,1.40954 -1.419083,0.95157 -5.300366,3.13534 -9.018173,5.074 -1.81674,0.94734 -4.717078,2.45898 -6.445196,3.3592 -1.728118,0.90022 -3.632752,2.01919 -4.23252,2.48661 -1.503404,1.17166 -3.462579,2.99379 -3.575508,3.3254 -0.05144,0.15105 -0.273409,0.36205 -0.49326,0.46889 -0.497148,0.24157 -0.511514,0.51205 -0.03718,0.70009 0.470405,0.18649 0.601455,0.11759 1.095496,-0.57596 z m 127.36532,0.46269 c 0.17724,-0.11161 0.24832,-0.20527 0.15795,-0.20815 -0.0904,-0.003 -0.88797,-0.74119 -1.77243,-1.6407 -0.88447,-0.89951 -2.14381,-2.02027 -2.79855,-2.49058 -1.04947,-0.75384 -4.22307,-2.49697 -7.91341,-4.34652 -4.21412,-2.11206 -6.16859,-3.13591 -7.08971,-3.71395 -0.57604,-0.36149 -2.09872,-1.29453 -3.38373,-2.07343 -1.28501,-0.7789 -2.69893,-1.6664 -3.14203,-1.97222 -0.44311,-0.30583 -1.20445,-0.78964 -1.69187,-1.07515 -0.48742,-0.2855 -1.39377,-0.84153 -2.01412,-1.23562 -0.62035,-0.39408 -1.764,-1.04228 -2.54145,-1.44043 -1.55296,-0.79532 -1.40884,-0.60084 -2.5423,-3.43046 -0.44655,-1.11481 -0.59436,-1.3318 -0.90718,-1.3318 -0.22476,0 -0.3737,0.10274 -0.3737,0.25777 0,0.14177 0.0571,0.25776 0.12684,0.25776 0.0698,0 0.1377,0.15386 0.15099,0.3419 0.0431,0.60995 1.49417,3.60286 1.86213,3.84069 0.19665,0.12711 1.26391,0.75784 2.37167,1.40162 2.76649,1.60775 3.09512,1.80434 4.77765,2.85798 3.92421,2.45742 5.18699,3.227 6.25975,3.8149 0.53173,0.2914 1.00428,0.58606 1.0501,0.65481 0.0458,0.0687 1.67727,0.95189 3.62542,1.96254 11.14543,5.78193 10.11451,5.17978 12.22993,7.14345 2.88428,2.67738 2.89618,2.68766 3.0721,2.65702 0.09,-0.0157 0.30871,-0.11983 0.48595,-0.23143 z m -62.85939,-17.19367 c 0.16187,-0.27933 0.56286,-3.44556 0.75494,-5.96097 0.10825,-1.41772 0.27288,-2.68102 0.36584,-2.80734 0.32841,-0.44627 2.63265,-1.53922 4.94032,-2.34329 4.36187,-1.51983 7.56184,-3.29276 10.70914,-5.93335 1.74331,-1.46264 1.78314,-1.54558 1.93942,-4.03835 0.0533,-0.85064 0.19915,-2.74522 0.32407,-4.2102 0.43707,-5.12593 0.43576,-5.05205 0.0848,-4.78646 -1.57292,1.19044 -2.64345,1.89466 -3.38968,2.2298 -1.61401,0.72488 -3.51247,1.94165 -4.60659,2.95246 -1.21423,1.1218 -1.89329,1.53089 -3.52738,2.125 -2.69431,0.97958 -5.76658,1.35882 -9.75145,1.20371 -3.7182,-0.14473 -6.233487,-0.81042 -8.629062,-2.28374 -0.704233,-0.43312 -1.937391,-1.11652 -2.740351,-1.51867 -0.80296,-0.40214 -2.313914,-1.28377 -3.357675,-1.95916 -1.043761,-0.67539 -1.930016,-1.22799 -1.969454,-1.22799 -0.149651,0 -3.546218,-2.47121 -3.987122,-2.90088 l -0.461865,-0.45009 0.107143,1.37476 c 0.05893,0.75611 0.209031,2.41871 0.333562,3.69466 0.12453,1.27595 0.269551,3.2092 0.322267,4.29612 0.156241,3.22141 0.0023,2.88717 2.182608,4.73931 1.058606,0.89927 2.482443,1.98669 3.164082,2.41648 1.771484,1.11698 6.98082,3.71844 7.487208,3.739 0.234997,0.01 0.393862,0.0753 0.353033,0.14623 -0.04083,0.0709 0.03881,0.12888 0.17697,0.12888 0.138162,0 0.251204,-0.0381 0.251204,-0.0846 0,-0.0465 -1.238734,-2.67562 -2.752741,-5.84238 -1.514008,-3.16677 -2.7231,-5.85259 -2.686872,-5.9685 0.06828,-0.21846 0.585536,0.67857 2.747041,4.76396 1.890295,3.57278 2.912166,5.90439 2.920133,6.66287 0.0064,0.6103 0.04481,0.65898 0.654991,0.83027 1.330169,0.37339 5.66454,1.92661 6.23573,2.23456 0.32589,0.1757 0.62812,0.45607 0.67162,0.62306 0.0435,0.16698 0.12841,1.96616 0.18869,3.99817 0.0603,2.03202 0.17752,3.82994 0.26054,3.99539 0.15684,0.31255 0.54431,0.40381 0.68485,0.16131 z m -3.07323,-11.6338 c -0.72109,-0.32336 -2.9946,-2.68931 -3.762073,-3.91502 -0.354921,-0.56685 -0.614041,-1.06398 -0.575822,-1.10474 0.03822,-0.0408 0.714382,0.60847 1.502585,1.44274 0.7882,0.83426 1.9329,1.98616 2.54377,2.55978 1.12054,1.05219 1.2313,1.43865 0.29154,1.01724 z m 4.46156,-0.49963 c 0,-0.13896 0.38067,-0.58559 0.84593,-0.99252 0.46527,-0.40693 1.52438,-1.45981 2.35359,-2.33974 0.8292,-0.87992 1.54367,-1.56144 1.5877,-1.51448 0.044,0.047 -0.33157,0.66868 -0.83468,1.38161 -1.37825,1.95304 -3.95254,4.20988 -3.95254,3.46513 z m 6.28407,-0.0119 c 0,-0.41257 0.9574,-3.50752 1.48908,-4.81371 1.59718,-3.92378 4.29519,-8.98731 4.66044,-8.74656 0.059,0.0389 -0.28641,0.84335 -0.76763,1.78766 -1.25663,2.46596 -4.62301,10.34133 -4.9763,11.64167 -0.11766,0.43305 -0.40559,0.52601 -0.40559,0.13094 z m -45.117028,8.00968 c 1.078078,-0.92847 1.047486,-1.89039 -0.05312,-1.67018 -0.65405,0.13086 -1.879789,1.30884 -1.879789,1.80655 0,0.69245 1.057137,0.61787 1.932906,-0.13637 z m 73.443668,0.4602 c 0.347,-0.37007 0.20563,-0.76901 -0.52813,-1.49034 -0.724,-0.71174 -1.33355,-0.89396 -1.84203,-0.55066 -0.3939,0.26594 0.0992,1.18349 0.9381,1.74548 0.80898,0.54196 1.13743,0.60974 1.43206,0.29552 z M 79.390486,126.45971 c 0.27327,-0.83457 0.599132,-1.62648 0.724139,-1.7598 0.195626,-0.20864 0.187387,-0.31443 -0.05915,-0.75954 -0.15754,-0.28443 -0.333055,-0.51715 -0.390033,-0.51715 -0.158934,0 -1.117661,4.35067 -1.10324,5.00646 l 0.01272,0.5785 0.159355,-0.51554 c 0.08765,-0.28354 0.38294,-1.19836 0.65621,-2.03293 z m 50.938664,-0.0732 c -0.0515,-0.20996 -0.16908,-0.33201 -0.26132,-0.27121 -0.0922,0.0608 -0.12561,0.0379 -0.0742,-0.0509 0.11929,-0.20584 -0.57705,-2.51575 -0.78015,-2.58795 -0.0838,-0.0298 -0.23771,0.0917 -0.34207,0.26987 -0.15613,0.26663 -0.10403,0.5173 0.29414,1.41521 0.26613,0.60015 0.53864,1.13118 0.60558,1.18006 0.0669,0.0489 0.17317,0.23714 0.23608,0.41835 0.15638,0.45047 0.44253,0.11849 0.32191,-0.37346 z m -20.21495,-3.75114 c 3.51032,-0.30262 4.23762,-0.5283 5.6445,-1.75152 0.93991,-0.81721 1.29094,-1.23954 2.18574,-2.62968 0.90037,-1.39882 1.53203,-2.07611 1.53203,-1.64272 0,0.16157 -0.11858,0.48678 -0.26352,0.72269 -0.14493,0.23591 -0.22207,0.47313 -0.17142,0.52716 0.12401,0.13226 2.09343,-0.56871 3.09359,-1.1011 1.8631,-0.99172 3.62597,-2.6289 5.31549,-4.9365 1.72138,-2.35111 2.0139,-3.28187 2.34413,-7.45887 0.10016,-1.26695 0.25424,-2.50423 0.34239,-2.74952 0.20516,-0.57089 0.74585,-5.546756 0.87007,-8.007144 l 0.0954,-1.890292 -1.34173,1.493763 c -1.77736,1.978756 -3.32576,3.403811 -3.69844,3.403811 -0.16606,0 -0.30193,-0.04139 -0.30193,-0.09197 0,-0.113776 0.5013,-0.956699 0.723,-1.21571 0.86275,-1.007953 1.34872,-1.648335 2.65904,-3.503974 0.83424,-1.181432 1.59827,-2.236715 1.69784,-2.345074 0.20705,-0.225341 0.59572,-4.964495 0.57576,-7.020444 -0.0178,-1.835063 -0.56733,-6.87763 -1.14234,-10.482545 -0.25629,-1.606748 -0.58063,-3.822943 -0.72076,-4.924878 -0.14013,-1.101935 -0.38959,-2.569654 -0.55435,-3.261599 -0.26021,-1.092756 -0.39208,-1.344115 -1.00351,-1.912771 -2.36682,-2.201227 -9.58959,-4.544978 -15.99047,-5.188829 -6.7851,-0.682498 -10.94704,-0.431721 -17.422845,1.049812 -3.38556,0.774548 -7.628585,2.274137 -9.967871,3.52289 -1.475004,0.787383 -3.766494,2.404289 -4.395752,3.101701 -0.913957,1.012947 -1.419374,2.670248 -1.666816,5.465615 -0.104579,1.181433 -0.40416,3.733326 -0.665736,5.670876 -0.336103,2.489591 -0.477263,4.209327 -0.481289,5.863498 -0.0073,3.018264 0.290967,6.345254 0.674615,7.523775 0.533293,1.638213 2.233407,4.101495 4.253639,6.163067 1.429939,1.459199 1.748007,1.860835 1.408565,1.778644 -1.047903,-0.253733 -3.364685,-2.018085 -4.758925,-3.624174 -0.503935,-0.580505 -0.916246,-0.936999 -0.916246,-0.792209 0,0.144791 0.284121,2.024454 0.631378,4.177029 1.951447,12.09659 1.998186,12.31929 2.949238,14.05261 1.037061,1.89007 1.758591,2.69172 3.624686,4.02715 1.530357,1.09517 7.096565,4.23402 7.238973,4.08215 0.02958,-0.0316 -0.166643,-0.42803 -0.436044,-0.88108 -0.2694,-0.45305 -0.447795,-0.86854 -0.396433,-0.92332 0.08547,-0.0911 2.334693,2.11211 2.471813,2.4213 0.03267,0.0737 0.598988,0.55953 1.258474,1.07968 1.743487,1.37511 2.900579,1.94474 4.813276,2.36957 0.83046,0.18446 7.06266,0.0831 9.89275,-0.16087 z m -22.170436,-9.38485 c -0.194741,-0.10034 -0.459739,-0.42376 -0.588886,-0.71871 -1.050314,-2.39871 -1.660352,-4.48459 -1.367937,-4.67733 0.08653,-0.057 0.200974,0.0781 0.254312,0.30023 0.05334,0.22217 0.592272,1.42135 1.197629,2.66484 1.315433,2.70209 1.349513,2.86619 0.504882,2.43097 z m 34.899366,-0.95424 c -0.0736,-0.55586 0.14624,-1.36513 0.73295,-2.69765 0.37669,-0.85553 0.7758,-1.96173 0.88691,-2.45822 0.20202,-0.9027 0.49378,-1.36907 0.48978,-0.78292 -0.0105,1.53941 -1.403,6.06767 -1.86591,6.06767 -0.12466,0 -0.23434,-0.058 -0.24373,-0.12888 z m -20.36586,-2.82673 c 0.37184,-0.2711 1.20238,-0.57533 2.01412,-0.73778 0.97648,-0.1954 1.11508,-0.26659 1.02213,-0.52493 -0.0685,-0.1903 0.0181,-0.23028 0.37076,-0.17117 0.25306,0.0424 0.77426,0.12139 1.15823,0.17548 0.77251,0.10882 2.09968,0.76437 2.44446,1.20744 0.20488,0.26328 0.11712,0.27693 -1.13803,0.17697 -2.19023,-0.17442 -4.35497,-0.18844 -5.30772,-0.0344 -0.77442,0.12524 -0.84556,0.11368 -0.56395,-0.0916 z m -11.81409,-1.62652 c -0.494794,-0.98609 -0.262526,-3.51237 0.334128,-3.63417 0.246827,-0.0504 0.2606,0.004 0.109012,0.42762 -0.09543,0.2669 -0.153136,1.1201 -0.128236,1.89598 0.04705,1.46607 -0.04489,1.8487 -0.314904,1.31057 z m 29.29668,-1.11852 c 0,-0.59922 -0.0725,-1.3403 -0.16113,-1.64684 -0.0886,-0.30655 -0.22852,-0.78916 -0.31089,-1.07246 -0.13629,-0.46877 -0.12306,-0.49985 0.1471,-0.34565 0.4945,0.28224 0.83031,1.5057 0.77621,2.82794 -0.0309,0.75577 -0.12137,1.21023 -0.24987,1.25552 -0.14695,0.0518 -0.20142,-0.22363 -0.20142,-1.01851 z m -4.33308,-0.51141 c -0.65508,-0.27793 -1.70645,-0.88665 -2.33638,-1.3527 -3.00578,-2.2238 -4.21932,-2.58069 -8.47675,-2.49295 -3.81515,0.0786 -4.926358,0.38806 -6.773374,1.88614 -0.979518,0.79446 -2.868095,1.89867 -3.002403,1.75543 -0.04146,-0.0442 0.191303,-0.3006 0.517244,-0.56975 0.325941,-0.26914 0.989668,-0.8276 1.474949,-1.24101 1.319993,-1.12449 2.573512,-1.8776 3.834144,-2.30355 1.02952,-0.34785 1.40628,-0.37785 4.24981,-0.33835 4.15557,0.0577 5.84179,0.53012 8.08787,2.26584 0.58125,0.44917 1.57231,1.10558 2.20236,1.45867 2.03778,1.14203 2.18662,1.76555 0.22253,0.93223 z m -11.05482,-6.996019 c -0.59153,-0.389681 -1.13413,-1.019756 -1.00072,-1.162041 0.0541,-0.0577 0.46563,0.136102 0.91451,0.430665 0.96407,0.632646 0.97459,0.633871 1.65333,0.192522 0.85094,-0.553316 1.07934,-0.394419 0.37987,0.264278 -0.71639,0.674641 -1.22979,0.747044 -1.94699,0.274576 z M 92.890041,97.974178 c 0,-0.161388 0.364177,-0.965633 1.587194,-3.505139 0.136117,-0.282636 0.704784,-1.205547 1.263704,-2.050913 0.558921,-0.845365 1.016219,-1.704532 1.016219,-1.909259 0,-0.360712 0.17553,-1.045801 0.513871,-2.005628 0.203939,-0.578547 3.245171,-3.058401 3.464231,-2.824773 0.1648,0.175763 -0.42039,0.838293 -1.743529,1.973951 -1.291321,1.108348 -1.34781,1.186101 -1.335409,1.838079 0.0072,0.376979 0.222883,1.14089 0.483389,1.711844 0.524832,1.150277 1.207715,1.747428 2.189839,1.91492 1.05165,0.179348 0.7221,0.46206 -0.383151,0.3287 -1.269194,-0.153142 -1.911778,-0.440885 -2.373527,-1.062844 l -0.366303,-0.493397 -0.940026,1.114221 c -0.517014,0.612821 -1.457701,2.024096 -2.090415,3.136165 -0.632713,1.11207 -1.180921,2.021946 -1.218238,2.021946 -0.03732,0 -0.06785,-0.08454 -0.06785,-0.187873 z m 24.079079,-1.822246 c -0.43769,-0.57311 -1.04959,-1.38588 -1.35976,-1.806155 -1.22087,-1.65423 -2.14133,-2.634953 -2.22605,-2.371788 -0.17817,0.553448 -0.99214,1.193597 -1.85973,1.462585 -1.32441,0.410619 -1.65779,0.257602 -0.66756,-0.306402 0.99988,-0.569495 1.26614,-0.794988 1.50611,-1.275493 0.23924,-0.479034 0.42188,-2.286507 0.28837,-2.853818 -0.0592,-0.251618 -0.62698,-0.893944 -1.36851,-1.548223 -1.1374,-1.003565 -1.6347,-1.711254 -1.33734,-1.903125 0.18435,-0.118946 2.93753,2.214244 3.2663,2.768026 0.17331,0.291932 0.35935,0.929125 0.41342,1.415983 0.0634,0.570661 0.24742,1.090957 0.51797,1.464267 2.22642,3.072045 3.77194,5.51832 3.67743,5.820704 -0.0302,0.0965 -0.41295,-0.29345 -0.85065,-0.866561 z m -11.72168,-0.324754 c -0.0484,-0.180796 -0.13813,-0.671388 -0.19942,-1.090204 -0.0671,-0.458777 -0.24796,-0.881942 -0.45488,-1.064505 -0.18889,-0.166662 -0.62217,-0.5537 -0.96285,-0.860085 -0.53531,-0.481436 -0.7243,-0.551126 -1.39209,-0.513325 -0.96431,0.05459 -2.03307,-0.240682 -2.16131,-0.597105 -0.309027,-0.858861 0.20794,-1.44476 1.27477,-1.44476 0.56639,0 0.75352,0.106959 1.37404,0.785331 0.39509,0.431932 1.21686,1.140276 1.82614,1.574098 l 1.1078,0.788767 0.56665,-0.325457 c 0.31166,-0.179001 1.0458,-0.840293 1.63142,-1.469538 0.8541,-0.917737 1.1937,-1.166578 1.71651,-1.25779 1.36898,-0.238844 1.99356,0.576629 1.11547,1.456407 -0.32529,0.32591 -0.62754,0.42285 -1.49045,0.478026 -0.73871,0.04723 -1.18475,0.166465 -1.40468,0.375485 -0.17725,0.168451 -0.72106,0.518271 -1.20848,0.777379 -1.06686,0.567134 -1.14405,0.67876 -1.02444,1.481404 0.10743,0.720857 -0.15851,1.48757 -0.3142,0.905872 z m -3.79696,-12.572656 c 0.5273,-2.66943 0.83096,-5.697081 0.73882,-7.366503 -0.10083,-1.826898 -0.40617,-2.606833 -1.39269,-3.557357 -0.64557,-0.622017 -0.67924,-0.632696 -1.994712,-0.632696 -1.40793,0 -3.122918,-0.295365 -7.554087,-1.301007 -2.410529,-0.547063 -2.786668,-0.591692 -3.625423,-0.430163 -1.15533,0.222496 -3.048993,1.220504 -3.987418,2.101468 -0.387128,0.363424 -0.747981,0.66077 -0.801895,0.66077 -0.05391,0 -0.05165,-0.30932 0.005,-0.687379 0.08478,-0.565443 0.05653,-0.687378 -0.159226,-0.687378 -0.301649,0 -0.339409,-0.192703 -0.0899,-0.458803 0.09481,-0.101118 0.374774,-0.807194 0.622134,-1.569059 0.247361,-0.761865 0.671074,-1.683241 0.941586,-2.047502 0.270512,-0.364261 0.61694,-0.942076 0.76984,-1.284033 0.651012,-1.455967 2.005517,-1.368412 6.801998,0.43968 1.292552,0.487243 1.898495,0.623599 2.771173,0.623599 1.48999,0 3.402668,-0.646465 4.424353,-1.495383 0.742137,-0.616642 0.77998,-0.628503 0.996726,-0.312374 0.169726,0.247553 0.270986,0.279884 0.410506,0.131078 0.12733,-0.135789 0.27822,-0.14444 0.48279,-0.02768 0.26632,0.152006 0.29758,0.09757 0.29758,-0.518184 0,-0.540982 0.0516,-0.666891 0.24169,-0.589117 0.13293,0.0544 0.2417,0.162937 0.2417,0.241187 0,0.07825 0.0767,0.357344 0.17038,0.620209 0.13789,0.386809 0.20027,0.429899 0.32715,0.225993 0.11684,-0.187769 0.13736,-0.142514 0.0806,0.177668 -0.25763,1.451949 -0.5161,2.478043 -0.92279,3.663423 -0.25352,0.738935 -0.46094,1.452558 -0.46094,1.585827 0,0.13327 0.38706,0.655111 0.86014,1.159648 0.47308,0.504537 0.95183,1.182857 1.0639,1.507377 0.11206,0.324521 0.2385,1.517999 0.28096,2.652174 0.072,1.923552 0.0391,2.229882 -0.49013,4.55819 -0.50055,2.202179 -1.09796,4.119968 -1.28343,4.119968 -0.0349,0 0.0703,-0.676639 0.23363,-1.503642 z m -5.568611,-2.310349 c 1.22965,-1.245719 3.157845,-2.91672 3.251004,-2.817365 0.168303,0.179494 -0.375274,1.017859 -1.148833,1.771862 -0.978309,0.953576 -2.79405,2.281823 -3.1193,2.281823 -0.111783,0 0.345925,-0.556344 1.017129,-1.23632 z m -9.095934,0.86629 C 86.486117,81.71851 85.870763,81.377499 85.418481,81.052661 84.9662,80.727823 84.43204,80.462046 84.231459,80.462046 c -0.200581,0 -0.364693,-0.07733 -0.364693,-0.171845 0,-0.354462 0.931795,-0.152802 1.7006,0.368046 0.438303,0.296939 1.123202,0.655203 1.521998,0.796142 0.398797,0.140938 0.793968,0.323303 0.878158,0.405255 0.200283,0.194959 -0.47755,0.166746 -1.181587,-0.04918 z m 35.752005,-0.10775 c 0,-0.09479 0.1994,-0.223372 0.44311,-0.285744 0.24371,-0.06237 0.86512,-0.388162 1.3809,-0.723977 0.95952,-0.624713 2.20424,-0.961984 2.20424,-0.597262 0,0.106959 -0.15893,0.194471 -0.35317,0.194471 -0.19424,0 -0.83077,0.302606 -1.4145,0.672457 -1.07001,0.677951 -2.26058,1.067712 -2.26058,0.740055 z m -7.95171,-0.548587 c -0.85955,-0.521315 -2.74911,-2.225311 -2.62015,-2.362842 0.0711,-0.07581 1.92649,1.391071 3.13889,2.481594 0.54258,0.488039 0.44487,0.46567 -0.51874,-0.118752 z M 89.667443,79.8903 c -1.238059,-0.257404 -2.402345,-0.788056 -2.847746,-1.297928 l -0.319736,-0.366019 -0.938998,0.344545 c -0.516449,0.1895 -1.111806,0.344546 -1.323016,0.344546 -0.484842,0 -1.546159,-0.571178 -1.976332,-1.063619 -0.325926,-0.373104 -0.462466,-0.935318 -0.182305,-0.750655 0.08036,0.05297 0.108154,-0.05847 0.06177,-0.247626 -0.04717,-0.192366 -0.005,-0.343926 0.09559,-0.343926 0.09896,0 0.179923,0.226377 0.179923,0.503061 0,0.653585 0.651611,1.215386 1.409678,1.215386 0.871691,0 1.680051,-0.587325 2.202298,-1.600108 0.252878,-0.490402 0.721896,-1.193794 1.042262,-1.563092 l 0.582484,-0.671452 -0.64452,0.489853 c -0.354486,0.269419 -0.838092,0.67675 -1.074681,0.90518 -0.236588,0.22843 -0.51476,0.385253 -0.618159,0.348495 -0.314926,-0.111956 2.038322,-2.158278 3.107049,-2.701807 1.19719,-0.608863 3.010413,-1.164905 4.310063,-1.321722 1.208253,-0.145788 3.043105,0.308623 3.72802,0.923265 0.629135,0.564584 1.806199,2.26336 1.66937,2.409287 -0.05804,0.0619 -0.447297,-0.28182 -0.865009,-0.763827 -1.443744,-1.665969 -3.121921,-2.172441 -5.654096,-1.706401 -0.805389,0.14823 -1.699137,0.386487 -1.986106,0.52946 -0.286969,0.142972 -0.396567,0.223271 -0.24355,0.17844 0.877277,-0.257022 3.1969,-0.459468 4.092531,-0.357176 1.336293,0.152621 3.11788,1.07869 3.729404,1.938544 0.241856,0.34007 0.786604,1.020787 1.210552,1.512703 l 0.770814,0.894395 -0.591854,0.118415 c -0.538356,0.107713 -0.651724,0.0568 -1.254204,-0.563293 -0.364292,-0.374941 -1.079273,-0.929159 -1.588847,-1.231596 l -0.926497,-0.549887 -6.02e-4,0.918589 c -6.12e-4,0.933492 -0.367892,1.854442 -0.939919,2.356837 -0.478338,0.420109 1.160118,0.08291 2.386506,-0.491144 1.207226,-0.565089 1.514295,-0.630618 1.418383,-0.302686 -0.101048,0.34549 -2.209481,1.456949 -3.340932,1.76117 -1.410348,0.37921 -3.411257,0.465493 -4.679592,0.201793 z m 0.805649,-0.72945 c 0,-0.05406 -0.194464,-0.452177 -0.432142,-0.884714 -0.29788,-0.542094 -0.462101,-1.138897 -0.528565,-1.920892 l -0.09642,-1.134462 -1.015064,1.060288 c -1.128732,1.179018 -1.217663,1.581524 -0.4789,2.167524 0.593459,0.470743 2.551094,1.017307 2.551094,0.712256 z m 0.604146,-1.433999 c 0.03053,-0.622809 -0.111766,-0.763644 -0.445806,-0.441239 -0.218608,0.210993 -0.268834,0.37085 -0.160329,0.510285 0.226905,0.291584 0.590489,0.250168 0.606135,-0.06905 z m 1.972196,-1.300924 c 0.285532,-0.366924 0.07184,-1.119222 -0.317924,-1.119222 -0.262759,0 -0.647119,0.445306 -0.647119,0.749729 0,0.138403 0.4954,0.625028 0.636299,0.625028 0.07144,0 0.219375,-0.114991 0.328744,-0.255535 z m 23.687836,3.236184 c -1.32121,-0.274082 -2.4816,-0.687449 -3.8981,-1.388618 -1.4733,-0.72929 -1.57457,-0.80992 -1.24993,-0.995217 0.1943,-0.110898 0.48472,-0.503206 0.64538,-0.871796 l 0.29211,-0.670163 -0.39225,-0.05438 c -0.53465,-0.07412 -0.49429,-0.324023 0.0738,-0.4571 0.25634,-0.06005 1.10089,-0.538715 1.87678,-1.063712 1.63198,-1.10425 1.87059,-1.17456 3.983,-1.173652 l 1.5725,6.75e-4 -0.76685,-0.221757 c -0.45109,-0.130443 -1.36729,-0.198832 -2.225,-0.166085 -1.52717,0.05831 -2.3189,0.381824 -3.26556,1.334371 -0.20526,0.206532 -0.41053,0.335696 -0.45616,0.28703 -0.32406,-0.345607 1.55922,-2.074945 2.58152,-2.370502 1.33774,-0.386754 4.282,0.258305 6.38489,1.39887 1.05607,0.572788 2.32357,1.954105 3.14574,3.42822 0.23377,0.419124 -0.71543,-0.447188 -1.19472,-1.090396 -0.5756,-0.772472 -1.39445,-1.504874 -1.52583,-1.364756 -0.0566,0.06037 -0.10293,0.03196 -0.10293,-0.06313 0,-0.0951 -0.18468,-0.262644 -0.4104,-0.37233 -0.65091,-0.316293 -0.68777,-0.231188 -0.073,0.168504 0.31018,0.201656 0.56906,0.336695 0.57529,0.300086 0.006,-0.03661 0.47754,0.549259 1.04735,1.30193 1.76215,2.327668 2.58329,2.678881 3.22888,1.381024 0.38704,-0.778111 0.6269,-0.980835 0.6269,-0.529855 0,0.133896 0.0829,0.27292 0.18424,0.308942 0.29846,0.106103 -0.0867,0.703554 -0.78751,1.221492 -0.79322,0.58626 -1.88819,0.631476 -2.51703,0.103939 l -0.42456,-0.356162 -0.0191,0.399123 c -0.0105,0.219517 -0.009,0.489501 0.004,0.599963 0.0127,0.110462 -0.3956,0.374924 -0.90741,0.587691 -0.78827,0.327703 -1.28778,0.393308 -3.26694,0.429082 -1.28501,0.02323 -2.51765,0.0046 -2.7392,-0.04133 z M 121.07306,78.83 c 0.82609,-0.11534 1.58834,-0.548321 1.71509,-0.974217 0.13696,-0.460224 -0.30038,-1.192586 -1.18982,-1.992444 -0.44554,-0.400663 -0.84151,-0.728479 -0.87995,-0.728479 -0.0384,0 -0.10774,0.503047 -0.15401,1.117881 -0.0903,1.200188 -0.60326,2.186348 -1.25126,2.405691 -0.52648,0.178212 -0.19087,0.436471 0.45507,0.350176 0.32698,-0.04368 0.91417,-0.124057 1.30488,-0.178608 z m -5.37419,-1.03384 c -0.53218,-0.836346 -0.65564,-1.773772 -0.3398,-2.579951 0.13998,-0.357309 0.23544,-0.669078 0.21212,-0.692819 -0.13541,-0.137862 -1.85481,1.482212 -2.05652,1.937718 -0.13293,0.30019 -0.37146,0.569237 -0.53006,0.597883 -0.63149,0.114059 -0.23099,0.417752 1.12227,0.851005 1.98905,0.636805 2.06612,0.631295 1.59199,-0.113836 z m 4.02006,-0.428637 c 0.0552,-0.09524 -0.003,-0.283594 -0.12975,-0.418565 -0.25123,-0.267931 -0.59609,-0.05484 -0.59609,0.36833 0,0.262395 0.57965,0.302513 0.72584,0.05024 z m 7.49178,-0.383708 c 0,-0.207198 -0.0897,-0.156222 -0.41813,0.237524 -0.30586,0.366725 -0.30567,0.367188 0.0556,0.130508 0.1994,-0.130638 0.36254,-0.296252 0.36254,-0.368032 z m -8.38122,-1.309497 c -0.016,-0.713959 -1.12544,-0.658033 -1.12544,0.05673 0,0.622368 0.49117,0.86092 0.84593,0.410848 0.15509,-0.196755 0.28086,-0.407167 0.27951,-0.467582 z m -10.87673,2.940397 c -0.0656,-0.354429 -0.10605,-1.765704 -0.0898,-3.136165 0.0231,-1.946514 0.0858,-2.585755 0.28663,-2.92136 0.32467,-0.542613 1.35106,-1.637586 1.62695,-1.735666 0.15728,-0.05591 0.10592,-0.322474 -0.20799,-1.079499 -0.86149,-2.077515 -1.14371,-4.445729 -0.59312,-4.977136 0.43277,-0.417695 0.69621,-0.360727 0.58172,0.125794 -0.0866,0.367841 -0.0464,0.407508 0.38865,0.384171 0.26685,-0.01431 0.53852,-0.08291 0.60371,-0.152428 0.22871,-0.24392 0.65662,-0.122467 1.01936,0.28932 0.20141,0.228648 0.73873,0.586638 1.19404,0.795534 0.71664,0.328793 1.00129,0.365086 2.11912,0.27019 1.69049,-0.143511 3.35765,-0.604004 5.65479,-1.561929 2.8053,-1.169836 3.71917,-1.232953 4.08836,-0.282368 0.10697,0.27541 0.36992,0.676524 0.58435,0.891364 0.21443,0.214841 0.38987,0.483394 0.38987,0.596787 0,0.113392 0.17546,0.54456 0.3899,0.958152 0.59396,1.145535 0.97141,2.514196 0.76611,2.778013 -0.10816,0.138993 -0.11599,0.311893 -0.0213,0.471483 0.1866,0.314663 0.19378,1.03664 0.0133,1.340248 -0.10208,0.17173 -0.434,-0.05438 -1.32686,-0.903892 -2.06054,-1.960494 -3.11083,-2.280919 -5.21897,-1.592205 -0.70897,0.231616 -2.12289,0.733462 -3.14203,1.115213 -3.15725,1.182636 -4.73377,1.51204 -5.90121,1.233013 -0.69581,-0.166304 -0.79831,-0.14494 -1.38502,0.288687 -1.14075,0.843112 -1.61687,2.517983 -1.61686,5.687689 0,0.968774 -0.019,1.761408 -0.0422,1.761408 -0.0232,0 -0.0959,-0.289988 -0.16152,-0.644418 z m -0.62841,-7.656339 c -0.22332,-0.31226 -0.52016,-0.859039 -0.65964,-1.215065 -0.27152,-0.693061 -0.62477,-4.91833 -0.42879,-5.128982 0.0634,-0.06816 0.27991,0.894716 0.48113,2.139724 0.30761,1.90334 0.59162,2.926509 1.26498,4.557262 0.17984,0.43553 -0.2642,0.197238 -0.65768,-0.352939 z m -3.94778,-0.579516 c 0.21429,-0.657521 0.38871,-1.877161 0.5085,-3.55577 0.22562,-3.161665 0.49187,-2.842285 0.4157,0.498651 -0.0455,1.995822 -0.0953,2.331319 -0.4571,3.080023 -0.58865,1.218148 -0.86713,1.204494 -0.4671,-0.0229 z m -25.5095,31.22085 c 0.283533,-0.28172 0.332943,-0.48876 0.276825,-1.15995 -0.03757,-0.449367 -0.104424,-1.474335 -0.148563,-2.277709 -0.102412,-1.864043 -0.777257,-7.389323 -0.902514,-7.389323 -0.05222,0 -0.220118,0.251323 -0.373098,0.558496 -0.152981,0.307172 -0.379249,0.746935 -0.502818,0.977251 -0.194202,0.361968 -0.190678,0.501793 0.02599,1.031068 0.511156,1.248669 0.8659,2.647155 0.71288,2.81035 -0.09528,0.101614 -0.732567,-0.470784 -1.707331,-1.533486 l -1.555308,-1.69562 0.07703,-0.869961 c 0.04237,-0.478479 0.268765,-1.355796 0.503108,-1.949594 0.504147,-1.277453 0.464847,-1.389952 -0.93622,-2.67998 -1.150168,-1.059014 -1.835609,-1.499275 -1.970857,-1.265887 -0.246024,0.424546 -0.104927,3.722836 0.233556,5.45963 0.191591,0.983078 0.315208,1.822758 0.274703,1.865956 -0.0405,0.0432 -0.422287,-0.683807 -0.848404,-1.615568 l -0.774758,-1.694111 v -2.749516 c 0,-3.448032 0.05549,-3.694661 0.831273,-3.694661 0.474212,0 0.677253,0.118506 1.084557,0.633007 0.275615,0.348154 1.233633,1.450108 2.128928,2.448787 0.895295,0.998679 1.757522,2.086436 1.91606,2.417237 0.158537,0.330801 0.423014,0.785878 0.587726,1.011282 0.263976,0.361243 0.298984,0.371429 0.295317,0.08592 -0.0023,-0.178147 -0.185924,-0.865214 -0.408081,-1.526816 -0.66823,-1.990051 -1.151639,-3.540008 -1.51235,-4.849059 -0.31883,-1.157063 -0.387385,-1.264303 -1.021302,-1.597612 -0.373741,-0.196511 -1.066933,-0.585895 -1.540425,-0.865299 -2.388527,-1.409447 -3.363684,-0.586106 -3.521,2.97284 -0.07536,1.704876 -0.03712,2.126194 0.323697,3.565829 0.819671,3.270475 1.035486,3.825484 2.381019,6.123243 1.222907,2.08835 1.471979,2.660187 2.011022,4.617051 0.369089,1.339883 0.528311,1.655703 1.191267,2.362863 0.725863,0.77427 0.810455,0.81626 1.644087,0.81626 0.655475,0 0.966572,-0.0872 1.223986,-0.34292 z m -2.89314,-3.401413 c -1.345262,-1.588062 -2.078718,-3.132349 -2.047504,-4.311008 l 0.01649,-0.622813 0.120558,0.515535 c 0.310655,1.328435 1.037518,2.584004 2.355537,4.068909 0.800846,0.902248 0.841114,1.000509 0.410006,1.000509 -0.166931,0 -0.551721,-0.293009 -0.85509,-0.651132 z m 58.81083,2.644093 c 0.88053,-0.48775 1.52165,-1.930687 2.06054,-4.637591 0.17521,-0.880064 0.55222,-1.929515 1.07444,-2.990847 0.86302,-1.753914 1.41129,-3.407219 1.80634,-5.446957 0.27885,-1.439753 0.34615,-6.489226 0.0959,-7.191338 -0.27312,-0.766147 -0.80842,-1.144679 -1.61873,-1.144679 -0.6223,0 -0.94982,0.144202 -2.02402,0.891153 -0.70487,0.490134 -1.32859,0.965289 -1.38604,1.0559 -0.0575,0.09061 -0.18906,0.636886 -0.29246,1.213944 -0.1034,0.577059 -0.4008,1.999139 -0.6609,3.160177 -0.2601,1.161039 -0.47291,2.190285 -0.47291,2.287214 0,0.09693 0.34973,-0.311701 0.77718,-0.908066 0.42745,-0.596366 1.27942,-1.785056 1.89327,-2.641535 1.62205,-2.263155 1.97996,-2.687977 2.16301,-2.567325 0.34638,0.228308 0.64848,1.149314 0.88313,2.69238 0.31014,2.039533 0.3095,3.342356 -0.002,4.672423 -0.23446,1.000095 -1.19777,3.610078 -1.2944,3.507029 -0.0248,-0.02649 0.0569,-0.511507 0.1817,-1.077815 0.40168,-1.82313 0.46793,-3.980725 0.16574,-5.397711 -0.14859,-0.696734 -0.36314,-1.408355 -0.47677,-1.581381 -0.19432,-0.295873 -0.23585,-0.281608 -0.69795,0.239754 -0.56059,0.632467 -1.49847,2.044651 -1.87862,2.828681 -0.25098,0.517606 -0.24329,0.555772 0.30886,1.533689 0.67898,1.202534 0.97041,2.146713 0.77607,2.514333 -0.3417,0.646384 -2.74034,3.540288 -2.94164,3.549023 -0.36045,0.01564 -0.0945,-1.421613 0.4637,-2.506462 0.51569,-1.002148 0.59172,-1.425247 0.31006,-1.725632 -0.0961,-0.102437 -0.34249,-0.678547 -0.54765,-1.280243 l -0.37301,-1.093994 -0.0913,0.601457 c -0.18565,1.222489 -0.41369,4.816909 -0.5037,7.93938 l -0.0926,3.213649 0.44839,0.25933 c 0.5686,0.32885 1.38672,0.34233 1.94684,0.0321 z m -0.5276,-3.188827 c -0.22465,-0.387678 0.08,-0.993978 0.74635,-1.485142 0.84918,-0.625962 1.51501,-1.730848 1.76714,-2.932407 0.12635,-0.602139 0.24147,-0.851716 0.32674,-0.70838 0.25301,0.425296 0.13244,1.099349 -0.40933,2.288293 -0.59172,1.298567 -2.22078,3.200211 -2.4309,2.837636 z M 73.705963,71.423367 c 0.180246,-0.434573 0.592709,-1.255358 0.916583,-1.823967 0.482918,-0.847831 0.603083,-1.245791 0.6679,-2.211934 0.06958,-1.037195 0.02559,-1.294615 -0.367853,-2.152251 l -0.44689,-0.974149 -0.274171,0.387647 c -0.702214,0.992852 -1.009046,2.407412 -1.091073,5.030078 -0.08654,2.76686 0.02995,3.108122 0.595504,1.744576 z M 59.299335,71.225393 c -0.0372,-0.259915 -0.151223,-1.052549 -0.253393,-1.761408 -0.154465,-1.071679 -0.144139,-1.45871 0.06129,-2.297053 0.28594,-1.166932 0.65789,-1.64675 1.831831,-2.363076 0.854243,-0.521249 1.341098,-1.009522 0.775988,-0.778249 -0.256692,0.105053 -0.264541,0.08496 -0.06672,-0.170776 0.203692,-0.26332 0.192006,-0.27154 -0.127746,-0.08986 -0.453165,0.25749 -0.581996,0.253121 -0.437228,-0.01483 0.06383,-0.118143 -0.06345,-0.04081 -0.282853,0.171845 -0.2194,0.212658 -0.466744,0.386774 -0.549654,0.386924 -0.08291,1.5e-4 -0.649621,0.502057 -1.259358,1.115349 l -1.108614,1.115076 0.111301,1.049185 c 0.09205,0.867704 0.830345,3.404717 1.152672,3.960935 0.160586,0.27711 0.220343,0.15011 0.152484,-0.324069 z m -0.556113,-2.033496 c 0.0077,-0.200189 0.04591,-0.240909 0.09735,-0.103822 0.04655,0.12405 0.04082,0.272266 -0.01272,0.329369 -0.05354,0.0571 -0.09163,-0.04439 -0.08463,-0.225547 z m 76.201728,-1.65278 c 0,-1.745313 -0.36642,-3.337654 -1.14868,-4.991882 -0.47795,-1.010698 -0.67947,-1.185257 -0.84315,-0.73034 -0.051,0.141772 -0.0182,0.257768 0.0728,0.257768 0.0911,0 0.13302,0.058 0.0932,0.128883 -0.0398,0.07089 -0.0108,0.515534 0.0645,0.988107 0.16331,1.025237 0.46804,3.091778 0.54532,3.698103 0.0774,0.607184 0.9246,2.402289 1.08415,2.297124 0.0725,-0.04778 0.1318,-0.789271 0.1318,-1.647763 z m 15.24638,-1.712833 c 0.44221,-1.840905 0.0793,-3.491241 -0.7312,-3.324781 -0.30524,0.06269 -0.33253,0.03384 -0.16799,-0.177598 0.16238,-0.208671 0.0622,-0.378823 -0.57766,-0.981186 -0.8302,-0.781524 -4.08275,-2.954329 -4.21358,-2.814797 -0.0434,0.04626 0.21783,0.293495 0.58044,0.549421 0.66977,0.472706 0.856,0.708761 0.41761,0.52935 -0.47113,-0.192814 -0.23323,0.16069 0.32323,0.480291 0.3107,0.178452 0.53067,0.360986 0.4888,0.40563 -0.0419,0.04464 0.19336,0.290775 0.52271,0.546958 1.90947,1.48526 2.43171,2.565895 2.57641,5.331208 0.0834,1.594719 0.0907,1.619124 0.31086,1.05386 0.12398,-0.318266 0.33565,-1.037526 0.47037,-1.598356 z M 79.88797,56.487527 c 2.109803,-0.431253 4.683853,-0.968798 5.720112,-1.194545 5.551066,-1.209291 6.54335,-1.356596 11.713031,-1.738799 7.617857,-0.563202 19.464437,-0.478071 26.666997,0.191631 2.98537,0.277582 6.86094,0.709311 7.77452,0.866062 0.34316,0.05888 0.60424,0.03299 0.60424,-0.05992 0,-0.08998 -0.30816,-0.21106 -0.6848,-0.269076 -0.37665,-0.05802 -1.65855,-0.260332 -2.84868,-0.449589 -4.88828,-0.777343 -12.50143,-1.455384 -20.39431,-1.816353 -3.90178,-0.178442 -11.76526,0.323339 -17.643728,1.125875 -1.373633,0.18753 -3.113836,0.423321 -3.867118,0.52398 -1.770031,0.236526 -6.707104,1.274773 -7.694608,1.618147 -0.60039,0.208766 -0.643529,0.244784 -0.200757,0.167618 0.310175,-0.05406 1.397802,-0.244167 2.416948,-0.422465 2.298334,-0.402091 6.700681,-1.033938 7.154902,-1.026908 0.649044,0.01005 -0.100481,0.291468 -1.354225,0.50847 -4.848115,0.839124 -11.037657,2.248389 -11.723606,2.669287 l -0.441702,0.271028 0.48339,-0.09017 c 0.265864,-0.0496 2.209592,-0.443018 4.319394,-0.87427 z m 45.87257,-3.938062 c 0,-0.128093 -1.64703,-0.435355 -2.81977,-0.526044 -5.67499,-0.438849 -13.08879,-0.6018 -12.90441,-0.283632 0.0471,0.08121 2.24472,0.205334 4.88369,0.275832 2.63896,0.0705 5.95825,0.224716 7.3762,0.342707 3.22944,0.268732 3.46429,0.281689 3.46429,0.191137 z M 73.941818,46.721971 c 1.285287,-2.917293 2.291799,-5.963119 3.088101,-9.344966 1.185385,-5.034258 1.019008,-4.734777 -1.858916,3.346081 -0.715311,2.008505 -1.484913,4.483069 -1.710227,5.49903 -0.225313,1.015962 -0.446313,1.982531 -0.49111,2.147931 -0.0448,0.165401 -0.03757,0.300729 0.01605,0.300729 0.05363,0 0.483871,-0.876963 0.956099,-1.948805 z m 31.649162,-4.290253 c 0.503,-0.501529 1.32115,-1.274827 1.81812,-1.718439 0.97624,-0.87143 2.88276,-2.009496 3.36637,-2.009496 0.38688,0 0.87519,-0.671052 1.22644,-1.685411 0.15356,-0.443485 0.35078,-0.906428 0.43825,-1.02876 0.1138,-0.159147 0.0582,-0.297724 -0.19531,-0.487123 -0.9785,-0.730947 -1.72159,-2.024133 -2.02788,-3.52912 -0.25404,-1.24822 -0.32729,-0.81274 -0.0888,0.528189 0.15475,0.870268 0.7795,2.046719 1.5756,2.966982 l 0.39743,0.459419 -0.51482,1.191188 -0.51482,1.191188 -1.27852,0.47466 c -0.70318,0.261064 -1.33825,0.588508 -1.41127,0.727656 -0.073,0.139147 -0.17986,0.248181 -0.23742,0.242298 -0.24851,-0.02539 -0.58219,0.200542 -0.50159,0.33963 0.0484,0.08353 -0.0124,0.11077 -0.13516,0.06054 -0.12902,-0.0528 -0.49454,0.219879 -0.86645,0.646386 -0.35381,0.405744 -0.98822,1.07385 -1.40981,1.484679 l -0.76652,0.746961 -0.37759,-0.378314 c -0.22196,-0.222385 -0.45918,-0.324536 -0.57554,-0.247838 -0.12411,0.0818 -0.1567,0.05928 -0.0874,-0.06037 0.0622,-0.107279 -0.0857,-0.325235 -0.33765,-0.497754 -0.24653,-0.1688 -0.58174,-0.435836 -0.74491,-0.593415 -0.69371,-0.669951 -2.21078,-1.353306 -3.647402,-1.642947 L 97.199763,39.311181 96.39174,38.034114 c -0.658027,-1.039999 -0.773455,-1.327653 -0.621804,-1.549573 1.117358,-1.635096 1.388229,-2.650433 1.15962,-4.346725 -0.142619,-1.05824 -0.381345,-2.136115 -0.753254,-3.401026 -0.05564,-0.189244 0.184382,-0.343619 0.902902,-0.580717 1.240008,-0.40918 2.474954,-1.293976 4.363316,-3.126165 0.82108,-0.796653 1.5644,-1.448459 1.65182,-1.448459 0.0874,0 0.99947,0.680214 2.02676,1.511586 2.28758,1.851303 2.15888,1.768228 2.84456,1.836193 0.3102,0.03075 0.6597,0.140606 0.77666,0.244129 0.11696,0.103524 0.54976,0.237503 0.96177,0.297731 0.66914,0.09781 0.75059,0.157457 0.76296,0.55872 l 0.0139,0.449215 0.14043,-0.500811 c 0.18617,-0.663951 0.0877,-0.788025 -0.62529,-0.788025 -0.83446,0 -2.53121,-0.907677 -4.95618,-2.651308 l -2.04145,-1.467874 -1.12129,1.071484 c -2.457054,2.347933 -3.744279,3.265633 -5.257582,3.748283 -0.385866,0.123068 -0.733452,0.312354 -0.772413,0.420637 -0.03896,0.108283 0.117988,0.808934 0.348775,1.557003 0.458732,1.486924 0.666985,3.282868 0.494426,4.263854 -0.06321,0.359321 -0.41675,1.027924 -0.828918,1.567605 -0.63368,0.829723 -0.69487,0.981753 -0.517237,1.285102 0.110807,0.189229 0.256533,0.344052 0.323837,0.344052 0.0673,0 0.122371,0.0739 0.122371,0.164214 0,0.09032 0.291717,0.608346 0.64826,1.151174 l 0.64826,0.98696 1.400035,0.302293 c 1.708676,0.368934 3.023146,1.059461 4.560356,2.395678 0.64174,0.557835 1.27084,1.014246 1.39798,1.014246 0.12715,0 0.64272,-0.410342 1.14571,-0.911872 z m 0.11584,-4.501236 c 0.81683,-0.519831 1.55747,-0.945146 1.64586,-0.945146 0.0884,0 0.24813,-0.112317 0.35495,-0.249594 0.1534,-0.197119 0.11816,-0.60069 -0.16761,-1.919593 l -0.36184,-1.67 0.34847,-1.647947 c 0.19166,-0.906371 0.34847,-1.699664 0.34847,-1.762874 0,-0.06321 -0.39782,-0.238267 -0.88405,-0.389017 -0.48622,-0.150749 -1.52591,-0.623979 -2.31042,-1.051621 l -1.42637,-0.777531 -0.87189,0.620982 c -0.47955,0.341541 -1.50635,0.942916 -2.28179,1.336389 -0.775434,0.393474 -1.409883,0.783732 -1.409883,0.86724 0,0.08351 0.262205,0.897169 0.582678,1.808136 0.556115,1.580795 0.57928,1.732446 0.508144,3.326563 l -0.07453,1.670261 1.049006,0.372298 c 0.57695,0.204765 1.49029,0.590218 2.02965,0.856563 0.53936,0.266346 1.08311,0.487813 1.20834,0.492151 0.12522,0.0043 0.896,-0.41743 1.71282,-0.93726 z m -2.18796,0.540957 c -0.21486,-0.211586 -2.33095,-1.145519 -3.15528,-1.392577 -0.31857,-0.09548 -0.34058,-0.213375 -0.33105,-1.773388 0.009,-1.477483 -0.04945,-1.839189 -0.504673,-3.121721 -0.283184,-0.797835 -0.51488,-1.538107 -0.51488,-1.645047 0,-0.106941 0.489432,-0.44135 1.087623,-0.743131 0.95338,-0.480966 1.86625,-1.059499 2.81922,-1.78668 0.22742,-0.173535 0.3511,-0.168106 0.64452,0.02829 0.81208,0.543547 2.51139,1.366018 3.04146,1.472072 0.99813,0.199702 1.02659,0.259138 0.72901,1.522562 -0.3472,1.474163 -0.33567,2.855013 0.0358,4.283681 l 0.30112,1.158162 -0.66367,0.314129 c -0.36501,0.17277 -1.19009,0.674548 -1.8335,1.115061 -1.29847,0.888996 -1.32209,0.897107 -1.65569,0.568589 z m 2.4995,-1.82816 c 0.48949,-0.211882 0.88997,-0.434256 0.88995,-0.494164 -1e-5,-0.05991 -0.10808,-0.711198 -0.24016,-1.447309 -0.18327,-1.021454 -0.2031,-1.611501 -0.0837,-2.491748 0.086,-0.634351 0.15785,-1.201981 0.1596,-1.2614 0.002,-0.05942 -0.23246,-0.20814 -0.52048,-0.330491 -0.28802,-0.122351 -1.07596,-0.509073 -1.75097,-0.859382 l -1.2273,-0.636927 -0.46456,0.384584 c -0.25552,0.211521 -0.99451,0.675941 -1.64221,1.032044 -0.91807,0.504755 -1.15319,0.708966 -1.06674,0.926523 0.35085,0.882903 0.5587,2.32544 0.51784,3.593973 l -0.0459,1.424618 1.08899,0.406619 c 0.59894,0.223641 1.35895,0.556032 1.6889,0.738648 l 0.59991,0.332029 0.60343,-0.466189 c 0.33189,-0.256404 1.00392,-0.639547 1.49342,-0.851428 z m -4.74294,-4.082945 c 0.004,-0.07088 0.48632,-0.507154 1.07262,-0.969485 l 1.06601,-0.840602 1.18319,0.624389 c 0.65076,0.343414 1.18319,0.702353 1.18319,0.797641 0,0.218448 0.023,0.22003 -1.02235,-0.07035 -0.93891,-0.260816 -1.80924,-0.152711 -2.69256,0.334448 -0.50251,0.27714 -0.80037,0.323872 -0.7901,0.123962 z M 81.175387,31.591593 c 3.578181,-1.436385 7.036991,-3.748842 9.337088,-6.242498 1.670569,-1.811153 3.043834,-3.52018 2.927922,-3.643799 -0.03949,-0.04211 -0.306361,0.155871 -0.593053,0.439965 -0.286692,0.284094 -1.028817,0.933746 -1.649167,1.443672 -0.620351,0.509926 -1.526706,1.285506 -2.014124,1.72351 -2.528754,2.272395 -5.731436,4.255502 -8.857982,5.484879 -0.750993,0.295295 -1.388895,0.561913 -1.41756,0.592484 -0.02867,0.03057 0.06528,0.180785 0.208759,0.333808 0.357816,0.38161 0.85864,0.349483 2.058117,-0.132021 z m 28.904493,-1.512266 c -0.0514,-0.137087 -0.0896,-0.09637 -0.0974,0.103822 -0.007,0.181153 0.0311,0.282649 0.0846,0.225547 0.0535,-0.0571 0.0593,-0.205319 0.0127,-0.329369 z m 15.67819,-0.268508 c -0.004,-0.518822 -0.21081,-0.682692 -1.206,-0.95678 -0.53173,-0.146444 -2.12946,-0.814633 -3.55052,-1.484865 -2.18781,-1.031869 -2.85447,-1.442097 -4.35051,-2.677088 -2.88756,-2.38371 -3.01731,-2.485395 -3.17133,-2.485395 -0.47499,0 2.81922,3.435635 4.39669,4.58545 1.2861,0.937442 4.24015,2.64974 5.14493,2.982228 0.48742,0.179117 1.30314,0.328257 1.81271,0.331423 0.77793,0.0048 0.92611,-0.04247 0.92403,-0.294973 z M 101.81606,18.616764 c 0.54091,-0.07948 1.6723,-0.08782 2.5142,-0.01853 1.61966,0.133301 1.98078,0.106403 1.09915,-0.08187 -0.29435,-0.06286 -0.98824,-0.269805 -1.54197,-0.459875 -0.95446,-0.327622 -1.04657,-0.331079 -1.77243,-0.06652 -0.73855,0.269184 -2.209336,1.076855 -1.58799,0.872033 0.16807,-0.0554 0.74813,-0.165757 1.28904,-0.245236 z"
       id="path4" /></g></svg>
